<svg width="39" height="48" viewBox="0 0 39 48" fill="none" xmlns="http://www.w3.org/2000/svg">
<path fill-rule="evenodd" clip-rule="evenodd" d="M27.9607 0.609799C25.9839 0.800298 23.6632 1.94524 22.035 3.53329C20.2931 5.23222 19.116 7.59389 18.9096 9.80389C18.878 10.1433 18.8925 10.9508 18.9344 11.1765L18.9627 11.3289L19.1589 11.3567C19.4452 11.3974 20.1498 11.373 20.5117 11.3099C21.8928 11.0691 23.3312 10.3893 24.6167 9.36988C25.0054 9.06165 25.7241 8.33425 26.0779 7.89096C26.5929 7.24575 27.0302 6.55625 27.3832 5.83274C27.8974 4.779 28.202 3.78216 28.3686 2.60819C28.4167 2.26891 28.4389 1.21174 28.4036 0.938748C28.3549 0.561819 28.3641 0.583842 28.2561 0.587364C28.204 0.589056 28.0711 0.599164 27.9607 0.609799ZM27.0751 11.9204C26.5429 11.9518 25.821 12.0681 25.1884 12.2244C24.3557 12.4302 23.7308 12.6426 22.2612 13.2193C21.0689 13.6872 20.6991 13.8175 20.2194 13.939C19.6109 14.093 19.0772 14.0892 18.4192 13.926C17.9533 13.8105 17.6128 13.6894 16.3883 13.2039C15.2099 12.7367 14.7803 12.5811 14.2227 12.4199C12.8649 12.0272 11.7814 11.9398 10.415 12.1128C8.94169 12.2994 7.51618 12.7876 6.22993 13.5463C3.72927 15.0213 1.86106 17.4034 0.855167 20.3997C0.112218 22.6128 -0.147895 25.1216 0.0797438 27.8786C0.288196 30.403 0.905319 33.0825 1.8626 35.6198C2.47707 37.2483 3.30806 38.964 4.13339 40.3079C4.88795 41.5366 6.40879 43.5995 7.35365 44.6759C9.11117 46.6782 10.7412 47.5309 12.5625 47.4009C13.5215 47.3325 14.1295 47.1616 15.6057 46.5456C16.558 46.1483 16.9557 45.9997 17.4482 45.8572C18.9375 45.4265 20.6203 45.3887 22.0782 45.7531C22.6884 45.9056 23.0396 46.0326 24.0793 46.4767C25.3689 47.0276 25.8629 47.1833 26.6749 47.2948C27.0355 47.3443 27.8085 47.3636 28.1157 47.3306C29.5349 47.1786 30.8299 46.474 32.1183 45.1529C32.9046 44.3467 33.7 43.3331 34.8437 41.6801C36.1045 39.8577 37.2273 37.633 37.9254 35.574C38.1375 34.9483 38.1388 34.9423 38.0708 34.9213C37.8406 34.8501 36.9598 34.3666 36.4972 34.0577C33.8543 32.2921 32.2586 29.7469 31.9137 26.7465C31.6269 24.2509 32.1773 21.8773 33.5127 19.8515C34.2868 18.6772 35.4054 17.5574 36.6058 16.7551C36.7599 16.6521 36.886 16.5567 36.886 16.5432C36.886 16.5045 36.572 16.0843 36.2995 15.7583C34.3723 13.4529 31.6486 12.1282 28.4244 11.9281C28.0773 11.9066 27.3771 11.9025 27.0751 11.9204Z" fill="#2D2D2D"/>
</svg>
