<svg width="214" height="34" viewBox="0 0 214 34" fill="none" xmlns="http://www.w3.org/2000/svg">
<path fill-rule="evenodd" clip-rule="evenodd" d="M174.109 11.7616V0.115117L174.112 0.1125C174.475 -0.00527367 179.273 -0.0419144 179.99 0.057539C180.089 0.413477 180.108 33.0551 180 33.5445H174.13C174.12 33.1668 174.121 32.792 174.122 32.4069V32.4056C174.123 32.044 174.124 31.6735 174.117 31.2833L174.074 31.3239L174.047 31.349L173.994 31.3983C173.934 31.454 173.889 31.4961 173.847 31.5424C172.481 33.0891 170.759 33.8978 168.702 33.9868C166.713 34.0732 164.802 33.7408 163.028 32.8039C160.903 31.6837 159.502 29.9302 158.62 27.7291C157.937 26.0253 157.649 24.243 157.589 22.4215C157.519 20.2937 157.736 18.1973 158.44 16.1716C159.154 14.125 160.293 12.3793 162.086 11.1073C163.339 10.2149 164.737 9.67049 166.255 9.45588C166.946 9.35904 167.647 9.27267 168.343 9.28314C170.479 9.31978 172.358 10.0238 173.887 11.5549C173.923 11.5938 173.963 11.6298 174.03 11.6898L174.033 11.6923L174.109 11.7616ZM171.267 28.4279C172.586 27.8443 173.447 26.8079 174.01 25.5097L174.007 25.5124C174.549 24.2666 174.719 22.9501 174.745 21.2934C174.736 21.1993 174.727 21.0832 174.717 20.9511V20.9508L174.717 20.9493V20.949L174.717 20.9475V20.9473L174.717 20.9457C174.69 20.5792 174.653 20.0914 174.575 19.6106C174.345 18.2078 173.852 16.9149 172.858 15.8523C171.178 14.0595 168.43 13.7795 166.435 15.2163C165.404 15.9596 164.753 16.9803 164.355 18.1685C163.74 20.0032 163.693 21.8797 164.033 23.7693C164.229 24.8607 164.616 25.8788 165.279 26.7817C166.684 28.6949 169.121 29.3753 171.267 28.4279ZM46.6778 25.8685C48.0728 20.5006 49.4677 15.1302 50.8679 9.73875V9.73613L52.3348 9.69499C53.7103 9.65636 55.0857 9.61773 56.5054 9.5791L56.0867 10.892C53.6866 18.4186 51.2999 25.9031 48.9155 33.3877H43.7282C42.3833 28.3587 41.0384 23.3375 39.6935 18.3163L39.6925 18.3127C39.6611 18.3153 39.6271 18.3179 39.5931 18.3179L38.6382 21.9181C37.6111 25.79 36.5837 29.6634 35.5547 33.5474H30.3727L29.7204 31.501C27.4144 24.2673 25.1056 17.0248 22.7881 9.75184H28.7265C30.1215 15.1249 31.5164 20.4954 32.9114 25.8659C32.9227 25.8668 32.9341 25.8679 32.9454 25.8691C32.9681 25.8714 32.9908 25.8737 33.0135 25.8737C33.6831 23.1978 34.3534 20.5213 35.0243 17.8421L35.0343 17.8023C35.7052 15.123 36.3769 12.441 37.0492 9.75445H42.54C43.1326 12.1222 43.7251 14.4879 44.3174 16.8527L44.3274 16.893L44.335 16.9232L44.3354 16.9249L44.3358 16.9265C45.0821 19.9061 45.828 22.8843 46.5731 25.8633C46.6072 25.8659 46.6438 25.8685 46.6778 25.8685ZM78.2409 12.3516L78.2363 12.3693C78.0072 13.2582 77.7784 14.1459 77.5502 15.0329C77.3982 15.6256 77.2473 16.2183 77.0964 16.8109L77.0956 16.814L77.0956 16.8142L77.0955 16.8145L77.0954 16.8147L77.0954 16.8149C76.7842 18.037 76.4732 19.2587 76.1526 20.4793C76.0483 20.8759 75.9461 21.2731 75.8439 21.6704L75.8434 21.6724L75.8433 21.6728C75.4817 23.0787 75.1198 24.4858 74.6608 25.8707C73.9881 23.1587 73.3153 20.4461 72.6425 17.7334L72.6309 17.6865C71.9623 14.9907 71.2937 12.2948 70.6251 9.59961H65.1369C63.8335 15.0512 62.538 20.4767 61.2425 25.9047C61.2085 25.9073 61.1771 25.91 61.143 25.9152C60.6022 24.3727 60.0621 22.8295 59.522 21.2864L59.515 21.2665C58.9779 19.7319 58.4407 18.1974 57.903 16.6634H57.8035C57.7544 16.7869 57.7025 16.9097 57.6506 17.0325L57.6505 17.0327L57.6505 17.0328L57.6505 17.0329L57.6504 17.0329L57.6504 17.033L57.6504 17.0331L57.6504 17.0331L57.6503 17.0332C57.5363 17.303 57.4221 17.573 57.3376 17.8516C57.0411 18.8423 56.7505 19.8352 56.4599 20.8279L56.4593 20.8301L56.4592 20.8303C56.2011 21.7119 55.9431 22.5935 55.681 23.4734C55.6051 23.7298 55.6077 23.9575 55.6888 24.214C56.3785 26.4042 57.064 28.5972 57.7494 30.7899L57.7497 30.791L57.7501 30.7921L57.7522 30.799C57.9996 31.5903 58.2469 32.3816 58.4944 33.1727C58.5252 33.269 58.566 33.3624 58.6041 33.4499L58.6042 33.4501L58.6297 33.509L58.6436 33.5417H63.7969C64.8369 29.6231 65.8722 25.717 66.9065 21.8148L67.8404 18.2913C67.86 18.2913 67.8808 18.2937 67.9012 18.2961L67.9127 18.2974L67.9294 18.2992C68.6822 21.1408 69.4358 23.9816 70.1894 26.8221C70.785 29.0673 71.3805 31.3124 71.9756 33.5574H77.2597C77.579 32.8691 84.8077 9.932 84.8155 9.58653H78.9609H78.953C78.7155 10.51 78.478 11.4315 78.2409 12.3516ZM106.025 14.6949C106.18 14.0864 106.335 13.4784 106.491 12.8711V12.879C106.63 12.3422 106.77 11.8062 106.91 11.2688L106.913 11.2549C107.057 10.7043 107.201 10.1523 107.344 9.59701H113.257C113.24 9.66043 113.224 9.72141 113.21 9.78047C113.182 9.89446 113.155 10.0013 113.121 10.1047C112.354 12.4772 111.587 14.8504 110.82 17.2235C110.053 19.5966 109.286 21.9698 108.519 24.3423C108.047 25.7999 107.575 27.2582 107.104 28.7165C106.632 30.1751 106.16 31.6336 105.688 33.0915L105.668 33.1544L105.643 33.2323L105.643 33.233C105.589 33.4074 105.561 33.4952 105.502 33.5391C105.441 33.5834 105.348 33.5828 105.16 33.5815C105.125 33.5812 105.086 33.581 105.044 33.581H100.744C100.673 33.581 100.602 33.5767 100.516 33.5715C100.468 33.5686 100.416 33.5655 100.356 33.5626C99.0086 28.4748 97.6608 23.387 96.3103 18.2992L96.2239 18.2939C95.3885 21.4409 94.5541 24.5878 93.7183 27.7403C93.2055 29.6742 92.6922 31.6102 92.1777 33.5496H86.9957L86.8822 33.2092L86.8814 33.2067L86.8778 33.1959C86.6535 32.5234 86.4314 31.8574 86.2132 31.1915C85.9917 30.5181 85.7708 29.8444 85.5498 29.1708L85.5481 29.1655C85.0121 27.5317 84.4761 25.8977 83.9336 24.2664C83.8394 23.9811 83.8341 23.7272 83.9283 23.4393C84.2293 22.5102 84.5257 21.5792 84.8221 20.6481C85.1185 19.717 85.4149 18.786 85.7159 17.8569C85.8467 17.4512 86.03 17.0639 86.2864 16.6634L89.5291 25.9204L89.5364 25.9199C89.5677 25.9175 89.5968 25.9152 89.626 25.9152C90.3778 22.7655 91.1305 19.6158 91.8835 16.4645L91.9002 16.3948C92.4419 14.1281 92.9837 11.8606 93.5256 9.59177H99.0086L103.044 25.8602C103.37 25.032 103.587 24.1773 103.804 23.3238C103.861 23.1012 103.918 22.8787 103.976 22.6568C104.164 21.9437 104.348 21.2296 104.531 20.5157C104.629 20.137 104.726 19.7584 104.824 19.3801C105.101 18.3044 105.379 17.2287 105.654 16.1505C105.778 15.6652 105.902 15.1799 106.025 14.6949ZM19.7757 15.5383C18.9984 12.6803 17.2292 10.7541 14.3869 9.85639C13.429 9.55279 12.4423 9.41147 11.4399 9.32771C9.80157 9.189 8.19723 9.30939 6.63739 9.83807C4.02281 10.7253 2.17769 12.4134 1.30093 15.0751C1.24003 15.2612 1.19648 15.4532 1.15337 15.6433C1.13163 15.7391 1.11 15.8344 1.08632 15.9283C1.84531 16.19 5.62191 16.9804 5.96738 16.9516C5.99126 16.9001 6.01493 16.848 6.03874 16.7955L6.03877 16.7955L6.03879 16.7954L6.03882 16.7954L6.03885 16.7953L6.03887 16.7952L6.03889 16.7952C6.09856 16.6638 6.15918 16.5302 6.22649 16.3994C6.68973 15.5174 7.37282 14.8735 8.33333 14.5726C9.71782 14.1381 11.0997 14.1983 12.4449 14.7217C13.3636 15.0803 13.9708 15.7712 14.1461 16.7501C14.2257 17.2002 14.2515 17.6604 14.2771 18.1168C14.2886 18.321 14.3 18.5245 14.3162 18.7261C14.2651 18.75 14.2302 18.7682 14.2049 18.7814C14.1667 18.8013 14.1503 18.8098 14.133 18.8098C13.9578 18.8177 13.7826 18.8203 13.6074 18.8229L13.6072 18.8229L13.607 18.8229C13.0785 18.8319 12.5499 18.8278 12.0213 18.8237C10.7043 18.8135 9.38791 18.8033 8.07684 18.9956C6.50391 19.2259 5.00949 19.6813 3.65117 20.5241C2.09394 21.4898 0.971163 22.8036 0.44249 24.5833C0.0917859 25.7663 0.065614 26.9624 0.295927 28.1689C0.80628 30.8594 2.32425 32.6731 4.95976 33.5027C6.2893 33.9215 7.65024 33.9581 9.01903 33.7592C11.241 33.4373 13.0626 32.3904 14.5047 30.6788C14.545 30.6311 14.5699 30.5693 14.5948 30.5077C14.6054 30.4814 14.6159 30.4552 14.6277 30.4301C14.6695 30.4563 14.714 30.4825 14.7559 30.506C14.9517 31.4612 15.1474 32.4138 15.3431 33.3664L15.3433 33.3673L15.3448 33.3745H20.1997L20.2041 33.305L20.2083 33.2426C20.2162 33.1265 20.2232 33.0228 20.2232 32.9191C20.2232 31.4019 20.2235 29.885 20.2238 28.3682V28.3679V28.3676V28.3673V28.367V28.3667C20.2244 25.3339 20.225 22.3014 20.2232 19.2678C20.2232 18.0089 20.1081 16.7579 19.7757 15.5357V15.5383ZM13.1568 26.9911C12.2931 27.9674 11.1834 28.5117 9.91149 28.742C9.31477 28.8494 8.71544 28.9095 8.11872 28.7368C7.0352 28.4228 6.35735 27.4649 6.41492 26.3342C6.48559 24.955 7.32832 23.9709 8.72067 23.683C9.1054 23.6019 9.50583 23.5679 9.90102 23.5652C10.7909 23.5565 11.6807 23.5594 12.5706 23.5623C13.0155 23.5638 13.4604 23.5652 13.9053 23.5652C13.977 23.5652 14.0488 23.5723 14.1283 23.58C14.1678 23.5839 14.2091 23.5879 14.2534 23.5914C14.3529 24.8948 14.01 26.028 13.1594 26.9938L13.1568 26.9911ZM129.399 10.05C131.993 11.0419 133.55 12.9498 134.252 15.5984L134.254 15.5958C134.558 16.7395 134.678 17.9094 134.678 19.0898V32.9321C134.678 33.0344 134.671 33.1381 134.663 33.2537L134.663 33.2548L134.663 33.2568C134.66 33.297 134.657 33.3387 134.655 33.3823H129.81C129.611 32.4061 129.415 31.4482 129.206 30.4275C129.19 30.4446 129.175 30.4606 129.16 30.4755C129.135 30.5027 129.112 30.5266 129.091 30.5483L129.09 30.5492L129.089 30.5496C129.038 30.6031 128.999 30.6433 128.962 30.6866C127.52 32.4034 125.694 33.4425 123.474 33.7591C121.742 34.0078 120.043 33.8822 118.436 33.1232C116.382 32.1496 115.209 30.4929 114.788 28.2944C114.513 26.8681 114.547 25.4417 115.078 24.0651C115.633 22.6204 116.607 21.5133 117.889 20.6653C119.111 19.8566 120.467 19.3724 121.901 19.1002C122.998 18.8935 124.107 18.8176 125.225 18.8228C125.986 18.8263 126.745 18.8252 127.519 18.824H127.519H127.519H127.519H127.519C127.911 18.8234 128.307 18.8228 128.709 18.8228L128.713 18.7156C128.76 17.7144 128.804 16.7418 128.264 15.8497C127.892 15.232 127.337 14.8447 126.672 14.6222C125.531 14.2427 124.359 14.1852 123.189 14.4495C121.998 14.7191 121.145 15.4388 120.619 16.5406C120.596 16.5853 120.576 16.6311 120.555 16.6772C120.544 16.704 120.532 16.7309 120.519 16.7579C120.485 16.8285 120.451 16.8992 120.391 17.0248C119.511 16.8325 118.632 16.641 117.748 16.4485L117.746 16.4482L117.742 16.4474L117.736 16.446L117.729 16.4444C117.007 16.2873 116.282 16.1295 115.552 15.9701C115.675 15.1849 115.926 14.4888 116.274 13.8292C117.381 11.7276 119.137 10.4243 121.383 9.7464C122.862 9.29886 124.372 9.19941 125.913 9.32765C127.109 9.42972 128.279 9.62077 129.399 10.05ZM123.241 28.8362C124.147 28.8571 125.008 28.6661 125.83 28.2944H125.832C127.808 27.3994 128.873 25.6694 128.709 23.6201C128.695 23.6147 128.682 23.6093 128.671 23.6043L128.654 23.5964C128.627 23.5841 128.609 23.5756 128.591 23.5756C128.144 23.5764 127.697 23.5748 127.251 23.5731L127.25 23.5731H127.25C126.153 23.569 125.056 23.565 123.961 23.5966C123.231 23.6175 122.516 23.806 121.885 24.2195C121.014 24.7953 120.648 25.6432 120.747 26.6351C120.867 27.8678 121.995 28.81 123.241 28.8362ZM200.435 21.2752C199.417 20.4586 198.253 19.9195 197.038 19.4745C196.557 19.299 196.072 19.132 195.587 18.9649L195.587 18.9649C194.901 18.7285 194.215 18.4921 193.539 18.2314C193.089 18.056 192.641 17.8021 192.277 17.4881C191.259 16.6139 191.432 15.1405 192.592 14.4783C193.06 14.2114 193.578 14.0988 194.107 14.1485C195.499 14.2794 196.659 14.8761 197.567 15.9466C197.616 16.0034 197.665 16.0592 197.719 16.1216L197.725 16.1277L197.726 16.1292L197.836 16.2554C198.42 15.7229 198.999 15.1951 199.578 14.6672L199.582 14.6635L199.6 14.6471C200.172 14.1256 200.743 13.6041 201.32 13.0781C201.311 13.0646 201.302 13.0513 201.293 13.0381C201.276 13.0118 201.259 12.986 201.243 12.9606L201.194 12.8857C201.123 12.7763 201.058 12.6756 200.987 12.5782C199.161 10.0212 195.41 8.64983 192.872 9.04764C190.576 9.40881 188.734 10.4426 187.464 12.4055C185.776 15.0122 185.85 19.417 189.668 21.5238C190.494 21.9795 191.376 22.3419 192.251 22.7012L192.264 22.7068C192.72 22.8932 193.181 23.0623 193.643 23.2313C194.18 23.4278 194.717 23.6242 195.243 23.8479C195.719 24.0494 196.169 24.3425 196.578 24.6618C197.09 25.0622 197.263 25.638 197.187 26.2845C197.062 27.368 196.462 28.0694 195.423 28.3573C193.835 28.797 192.4 28.4724 191.157 27.3863C190.461 26.7791 189.982 26.0123 189.59 25.1879C189.522 25.0436 189.452 24.8993 189.374 24.7383L189.31 24.6042L187.742 25.4625C186.701 26.0328 185.66 26.6031 184.591 27.1874C184.646 27.3059 184.697 27.4206 184.747 27.5321C184.848 27.7581 184.944 27.9708 185.054 28.1741C187.281 32.2726 191.822 34.3742 196.457 33.2776C200.103 32.4139 202.424 29.5429 202.532 25.8657C202.587 23.9944 201.909 22.4555 200.435 21.2778V21.2752ZM145.909 9.62619V13.2955V13.2981C148.379 9.81463 151.604 8.56099 155.789 9.71517C155.546 10.9728 155.305 12.2098 155.065 13.4426L155.059 13.4756L155.055 13.4961L154.731 15.1616C154.576 15.0981 154.427 15.0306 154.282 14.9646L154.281 14.964L154.28 14.9639C153.971 14.8235 153.677 14.6901 153.368 14.6172C151.583 14.1984 149.994 14.625 148.644 15.8603C147.654 16.7659 147.081 17.9305 146.678 19.1894C146.134 20.8854 145.94 22.6363 145.927 24.4081C145.912 26.4286 145.915 28.4478 145.917 30.4676V30.4679V30.4734C145.918 31.251 145.919 32.0287 145.919 32.8067V33.3694C144.712 33.4642 143.511 33.484 142.3 33.504C141.54 33.5165 140.776 33.5291 140.004 33.5604V9.66021C140.337 9.55029 145.218 9.51888 145.909 9.62619ZM213.998 29.7497L214 29.7546L214 29.7549C214 29.6789 214 29.6032 214 29.5276L214 29.5273L214 29.5244C213.999 29.3745 213.998 29.225 214 29.0744L214 29.0741C213.998 29.2258 213.999 29.3764 214 29.5273" fill="#2D2D2D"/>
</svg>
