<svg width="140" height="34" viewBox="0 0 140 34" fill="none" xmlns="http://www.w3.org/2000/svg">
<path d="M139.417 26.8404C133.61 36.6896 124.409 33.8319 121.643 31.5935C120.468 32.3926 118.405 34.1415 115.656 33.9365C109.798 33.5181 107.706 25.15 107.706 25.15C106.839 25.4889 105.924 25.6935 104.995 25.7567C104.995 28.2128 102.861 34.0746 97.1374 33.9993C90.7149 33.9156 89.4053 24.3425 89.4053 24.3425C89.4053 24.3425 88.7651 25.2295 86.3342 26.1124C86.4555 24.2254 86.3677 33.7106 78.669 33.8487C72.5812 33.9574 70.9369 24.1919 70.9369 24.1919C70.066 24.9731 68.9879 25.486 67.8324 25.6689C67.9621 23.7526 67.7529 33.8779 60.05 33.8445C54.8451 33.8236 53.0669 27.8278 53.2049 26.9952C53.3807 25.9366 51.4476 33.9909 46.3891 33.8654C44.2971 33.8026 42.749 32.2922 41.7867 30.2797C40.4812 31.7734 38.5817 33.8654 36.4562 33.8654C32.6362 33.8654 30.9542 30.6688 31.2387 21.5476C31.2638 20.4639 31.1843 20.0413 30.109 19.874C29.4646 19.7652 28.8036 19.5643 28.1007 19.4555C27.8747 20.2045 25.9752 33.6185 19.4355 33.8738C17.2431 33.9574 16.0422 32.0579 15.0548 30.6479C13.5444 32.6478 11.5486 33.9365 8.71178 33.9365C3.90013 33.9365 0.624023 30.0454 0.624023 25.2505C0.624023 20.4555 3.90013 16.5644 8.71178 16.5644C9.35 16.563 9.98286 16.6808 10.5779 16.9116C8.97956 2.35954 12.7536 0.0875967 16.0548 0.0875967C19.2263 0.0875967 24.6404 7.44315 17.0213 26.1082C18.6949 31.673 22.3601 31.3592 24.1133 19.9032C24.4689 17.5727 23.5149 14.4305 25.0003 13.9912C27.7115 13.1878 28.0002 15.5937 29.2722 15.9953C30.6153 16.4137 31.4019 16.3761 32.6905 16.6481C34.8955 17.0665 35.7575 18.2631 35.4897 20.9032C35.1675 24.2505 34.6027 29.104 36.3265 29.6897C37.5817 30.1081 39.8327 27.5475 40.2302 26.1375C40.5466 25.1923 40.72 24.2051 40.7448 23.2086C40.7252 21.3639 40.892 19.522 41.2427 17.7108C41.4059 17.0665 41.5858 16.6355 42.318 16.6062C42.9205 16.6062 44.0209 16.4096 44.5021 16.7861C45.1465 17.2715 45.067 17.7652 44.9916 19.0581C44.2427 37.5223 50.0125 28.3048 51.7405 20.9241C51.1255 12.5812 51.548 0.229856 56.7614 0.00391709C59.481 -0.104868 60.6818 2.07502 60.8157 3.70261C61.1881 8.30506 59.0961 15.9033 56.3388 21.0204C54.7656 31.4805 63.2257 33.5265 64.5772 25.2044C62.3638 24.15 59.9747 19.8907 61.9161 17.8154C63.0081 16.6522 67.5562 18.3259 67.6315 21.9743C69.8616 21.376 70.142 20.1166 70.1922 20.3258C69.5771 11.9828 70.1461 0.242407 75.3762 0.0164687C78.0958 -0.0923165 79.2966 2.08757 79.4305 3.71516C79.8029 8.31761 77.7109 15.9158 74.9536 21.0329C73.3804 31.493 81.8405 33.539 83.192 25.217C81.5518 24.899 78.0916 20.3677 80.0874 17.8279C81.1544 16.4681 85.6857 19.2924 86.1919 22.1082C88.3342 21.5015 88.6271 20.284 88.6563 20.489C88.0413 12.146 88.6103 0.405585 93.8404 0.179646C96.56 0.0708611 97.7608 2.25075 97.8947 3.87834C98.2671 8.48079 96.1751 16.079 93.4178 21.1961C91.8446 31.6562 100.305 33.7022 101.656 25.3802C99.4052 25.0036 96.2169 20.2212 98.7775 17.7736C99.8068 16.7945 103.74 19.3342 104.66 22.2296C105.436 22.1925 106.198 22.0108 106.907 21.694C104.865 11.8992 106.384 0.141993 112.012 0.0457601C115.053 -0.00863249 118.024 1.69009 116.719 11.008C115.464 19.8991 110.995 23.6312 111.008 23.6898C111.267 24.7567 113.564 33.6687 119.351 28.9659C119.012 28.2609 118.755 27.5198 118.585 26.7567C117.627 21.8697 119.509 16.3468 124.627 15.4598C127.555 14.9493 130.321 16.3761 130.76 19.5936C131.48 24.8613 126.723 28.6772 124.903 29.5056C124.091 29.0454 132.246 34.2754 137.087 23.7944C137.367 23.1961 137.706 23.2463 138.145 23.5559C138.472 23.7567 140.237 25.4262 139.417 26.8404ZM12.2222 23.9576C11.9753 23.2212 11.4691 21.5978 11.2933 20.8949C10.3101 20.0581 9.61972 19.8991 8.36451 19.8991C5.55701 19.8991 3.90431 22.4932 3.90431 25.2923C3.90431 28.0914 5.70345 30.6855 8.50676 30.6855C10.9377 30.6855 12.7912 29.0119 13.3561 26.6898C12.9209 25.7944 12.5276 24.9576 12.2013 23.9576H12.2222ZM15.9878 3.94111C14.0172 3.94111 13.3477 8.64816 13.4774 12.6607C13.6007 15.418 14.1468 18.1401 15.0966 20.7317C15.2263 20.9074 15.2012 20.7944 15.3184 20.9785C18.7326 13.4724 17.3142 3.93692 15.9753 3.93692L15.9878 3.94111ZM57.0584 4.08754C54.5103 3.79466 54.5271 14.4138 54.8409 16.7945C56.163 14.6774 58.4643 4.66076 57.0584 4.08754ZM75.6732 4.08754C73.1252 3.79466 73.1419 14.4138 73.4557 16.7945C74.7695 14.6774 77.0707 4.65657 75.6649 4.08754H75.6732ZM94.1416 4.23399C91.5935 3.9411 91.6103 14.5602 91.9241 16.9451C93.2462 14.828 95.5475 4.81139 94.1416 4.23399ZM112.313 3.46412C108.342 4.26328 109.267 17.5058 109.869 19.8279C114.547 13.4012 114.643 3.22563 112.313 3.46412ZM127.2 20.012C127.068 19.624 126.806 19.2936 126.458 19.0776C126.11 18.8616 125.698 18.7733 125.292 18.8279C123.296 19.0999 121.363 21.5852 122.112 25.3634C122.23 25.9175 122.425 26.4525 122.689 26.9534C127.141 23.9618 127.518 21.6103 127.187 20.012H127.2ZM43.1005 13.6899C42.3848 13.6885 41.6954 13.4209 41.1661 12.9393C40.6368 12.4576 40.3056 11.7964 40.2369 11.0841C40.1681 10.3718 40.3668 9.65938 40.7941 9.08541C41.2215 8.51145 41.8471 8.11696 42.5492 7.97867C43.2513 7.84037 43.9798 7.96815 44.5929 8.33717C45.206 8.70618 45.66 9.29005 45.8665 9.97521C46.073 10.6604 46.0173 11.3978 45.7102 12.0442C45.4031 12.6906 44.8666 13.1996 44.205 13.4724C43.8547 13.6168 43.4794 13.6907 43.1005 13.6899Z" fill="#2D2D2D"/>
</svg>
