<svg width="104" height="34" viewBox="0 0 104 34" fill="none" xmlns="http://www.w3.org/2000/svg">
<path fill-rule="evenodd" clip-rule="evenodd" d="M13.5794 12.0778V15.6823L22.1943 15.6785C21.93 17.6665 21.2596 19.1222 20.2407 20.1411C18.9843 21.3975 17.023 22.7803 13.5794 22.7803C8.27021 22.7803 4.11788 18.5016 4.11788 13.1924C4.11788 7.88329 8.27021 3.60456 13.5794 3.60456C16.4446 3.60456 18.5361 4.73074 20.0798 6.17869L22.6233 3.6352C20.4705 1.57819 17.6053 0 13.5832 0C6.31279 0 0.199219 5.92205 0.199219 13.1924C0.199219 20.4629 6.31279 26.3849 13.5832 26.3849C17.5057 26.3849 20.4667 25.0978 22.7842 22.6846C25.1668 20.302 25.9061 16.9579 25.9061 14.2535C25.9061 13.4491 25.8448 12.706 25.7261 12.0778H13.5794ZM86.2487 25.8676V0.968916H82.6096V25.8676H86.2487ZM35.8771 26.3887C40.5733 26.3887 44.4001 22.7841 44.4001 17.8925C44.4001 12.9664 40.5733 9.39631 35.8771 9.39631C31.1808 9.39631 27.3541 12.9664 27.3541 17.8925C27.3541 22.7841 31.1808 26.3887 35.8771 26.3887ZM35.8771 12.7442C38.4512 12.7442 40.6691 14.8357 40.6691 17.8925C40.6691 20.9148 38.4512 23.0408 35.8771 23.0408C33.3029 23.0408 31.085 20.9186 31.085 17.8925C31.085 14.8357 33.3029 12.7442 35.8771 12.7442ZM54.2639 26.3887C58.9601 26.3887 62.7869 22.7841 62.7869 17.8925C62.7869 12.9664 58.9601 9.39631 54.2639 9.39631C49.5676 9.39631 45.7409 12.9702 45.7409 17.8925C45.7409 22.7841 49.5676 26.3887 54.2639 26.3887ZM54.2639 12.7442C56.838 12.7442 59.0559 14.8357 59.0559 17.8925C59.0559 20.9148 56.838 23.0408 54.2639 23.0408C51.6897 23.0408 49.4718 20.9186 49.4718 17.8925C49.4718 14.8357 51.6897 12.7442 54.2639 12.7442ZM80.4074 9.91344V25.1629C80.4074 31.4374 76.7071 34 72.3326 34C68.2147 34 65.7364 31.2458 64.8017 28.9935L68.05 27.6413C68.6284 29.0241 70.0457 30.6559 72.3288 30.6559C75.1289 30.6559 76.8641 28.9283 76.8641 25.6762V24.4542H76.7339C75.8988 25.4847 74.29 26.3848 72.2598 26.3848C68.0117 26.3848 64.1199 22.6845 64.1199 17.9231C64.1199 13.1273 68.0117 9.39631 72.2598 9.39631C74.2862 9.39631 75.895 10.2965 76.7339 11.2963H76.8641V9.91344H80.4074ZM77.1284 17.9231C77.1284 14.9315 75.1327 12.7442 72.5931 12.7442C70.0189 12.7442 67.8623 14.9315 67.8623 17.9231C67.8623 20.8842 70.0189 23.0408 72.5931 23.0408C75.1327 23.0408 77.1284 20.8842 77.1284 17.9231ZM100.43 20.6887L103.326 22.6193C102.391 24.0022 100.139 26.3848 96.2468 26.3848C91.4203 26.3848 87.8157 22.6538 87.8157 17.8886C87.8157 12.8361 91.4509 9.3924 95.8292 9.3924C100.238 9.3924 102.395 12.9012 103.1 14.7973L103.487 15.7626L92.1289 20.4666C92.9985 22.1712 94.3507 23.0407 96.2468 23.0407C98.1467 23.0407 99.4644 22.106 100.43 20.6887ZM91.516 17.6319L99.1082 14.4794C98.6907 13.4183 97.4342 12.679 95.9557 12.679C94.0595 12.679 91.4203 14.353 91.516 17.6319Z" fill="#2D2D2D"/>
</svg>
