<svg width="31" height="20" viewBox="0 0 31 20" fill="none" xmlns="http://www.w3.org/2000/svg">
<path d="M8.7045 0.596558C9.588 0.596558 10.383 0.673058 11.112 0.829058C11.8365 0.983558 12.4545 1.23856 12.9765 1.59106C13.491 1.94356 13.893 2.41156 14.1825 2.99956C14.463 3.58006 14.6025 4.30606 14.6025 5.16406C14.6025 6.09406 14.3925 6.87106 13.971 7.49056C13.5465 8.11156 12.921 8.62006 12.087 9.01306C13.2225 9.34156 14.064 9.91606 14.622 10.7321C15.183 11.5556 15.4575 12.5411 15.4575 13.6961C15.4575 14.6336 15.279 15.4391 14.9205 16.1156C14.575 16.782 14.0738 17.3552 13.4595 17.7866C12.8232 18.2297 12.1124 18.5548 11.361 18.7466C10.5732 18.9533 9.76197 19.0572 8.9475 19.0556H0V0.596558H8.7045ZM8.178 8.05456C8.898 8.05456 9.495 7.88356 9.966 7.53706C10.434 7.19506 10.6605 6.63106 10.6605 5.85856C10.6605 5.42956 10.584 5.07556 10.434 4.79806C10.2879 4.53109 10.0716 4.3091 9.8085 4.15606C9.53315 3.99275 9.22925 3.88331 8.913 3.83356C8.56829 3.76927 8.21814 3.73862 7.8675 3.74206H4.065V8.05456H8.178ZM8.4045 15.9131C8.805 15.9131 9.186 15.8786 9.5445 15.7976C9.906 15.7196 10.227 15.5936 10.5 15.4061C10.773 15.2261 10.998 14.9816 11.16 14.6696C11.3235 14.3606 11.403 13.9571 11.403 13.4726C11.403 12.5216 11.1345 11.8451 10.6035 11.4356C10.071 11.0306 9.357 10.8296 8.4825 10.8296H4.065V15.9146H8.4045V15.9131ZM21.252 15.8516C21.8025 16.3886 22.596 16.6586 23.628 16.6586C24.3675 16.6586 25.0065 16.4711 25.545 16.0991C26.076 15.7256 26.4 15.3266 26.5245 14.9141H29.757C29.238 16.5221 28.4505 17.6711 27.3735 18.3626C26.31 19.0571 25.0155 19.4021 23.5035 19.4021C22.4505 19.4021 21.5025 19.2326 20.6535 18.8966C19.8386 18.5792 19.1022 18.0889 18.495 17.4596C17.8978 16.8155 17.4362 16.058 17.1375 15.2321C16.8092 14.3187 16.6466 13.3541 16.6575 12.3836C16.6575 11.3846 16.824 10.4501 17.151 9.58756C17.4614 8.75383 17.9381 7.9919 18.552 7.34806C19.1595 6.71806 19.8795 6.22156 20.718 5.85706C21.5997 5.48622 22.5485 5.30137 23.505 5.31406C24.636 5.31406 25.6245 5.53306 26.4735 5.97406C27.2968 6.39503 28.0107 7.00208 28.5585 7.74706C29.103 8.48656 29.4915 9.33406 29.733 10.2836C29.9745 11.2316 30.0585 12.2216 29.9895 13.2581H20.343C20.3445 14.3141 20.7 15.3146 21.252 15.8516ZM25.47 8.83006C25.0335 8.34706 24.2955 8.08606 23.3925 8.08606C22.806 8.08606 22.3215 8.18356 21.9315 8.38456C21.5749 8.56467 21.2585 8.81522 21.0015 9.12106C20.7758 9.39874 20.6084 9.71914 20.5095 10.0631C20.423 10.3498 20.3672 10.645 20.343 10.9436H26.316C26.229 10.0076 25.908 9.31606 25.47 8.83006ZM19.593 1.83556H27.0765V3.65806H19.593V1.83556Z" fill="black"/>
</svg>
