<svg width="28" height="28" viewBox="0 0 28 28" fill="none" xmlns="http://www.w3.org/2000/svg">
<path d="M13.9984 7.06545C12.1589 7.06545 10.3947 7.7962 9.09394 9.09695C7.79319 10.3977 7.06243 12.1619 7.06243 14.0014C7.06243 15.841 7.79319 17.6052 9.09394 18.9059C10.3947 20.2067 12.1589 20.9374 13.9984 20.9374C15.838 20.9374 17.6022 20.2067 18.9029 18.9059C20.2037 17.6052 20.9344 15.841 20.9344 14.0014C20.9344 12.1619 20.2037 10.3977 18.9029 9.09695C17.6022 7.7962 15.838 7.06545 13.9984 7.06545ZM13.9984 18.5059C12.8034 18.5059 11.6572 18.0312 10.8122 17.1862C9.96717 16.3411 9.49243 15.195 9.49243 13.9999C9.49243 12.8049 9.96717 11.6588 10.8122 10.8137C11.6572 9.96868 12.8034 9.49395 13.9984 9.49395C15.1935 9.49395 16.3396 9.96868 17.1847 10.8137C18.0297 11.6588 18.5044 12.8049 18.5044 13.9999C18.5044 15.195 18.0297 16.3411 17.1847 17.1862C16.3396 18.0312 15.1935 18.5059 13.9984 18.5059Z" fill="black"/>
<path d="M21.2089 8.42745C22.102 8.42745 22.8259 7.70349 22.8259 6.81045C22.8259 5.9174 22.102 5.19345 21.2089 5.19345C20.3159 5.19345 19.5919 5.9174 19.5919 6.81045C19.5919 7.70349 20.3159 8.42745 21.2089 8.42745Z" fill="black"/>
<path d="M26.7994 5.16645C26.4522 4.26972 25.9215 3.45537 25.2414 2.77553C24.5613 2.0957 23.7468 1.56535 22.8499 1.21845C21.8004 0.824482 20.6917 0.611458 19.5709 0.588446C18.1264 0.525446 17.6689 0.507446 14.0059 0.507446C10.3429 0.507446 9.87343 0.507446 8.44093 0.588446C7.32101 0.610281 6.21307 0.823349 5.16493 1.21845C4.26783 1.56495 3.45308 2.09515 2.77293 2.77504C2.09279 3.45493 1.56227 4.26948 1.21543 5.16645C0.821387 6.21587 0.608851 7.3247 0.58693 8.44545C0.52243 9.88845 0.50293 10.3459 0.50293 14.0104C0.50293 17.6734 0.50293 18.1399 0.58693 19.5754C0.60943 20.6974 0.82093 21.8044 1.21543 22.8559C1.56325 23.7526 2.09427 24.5668 2.77458 25.2466C3.45489 25.9264 4.26953 26.4568 5.16643 26.8039C6.21258 27.2137 7.32099 27.442 8.44393 27.4789C9.88843 27.5419 10.3459 27.5614 14.0089 27.5614C17.6719 27.5614 18.1414 27.5614 19.5739 27.4789C20.6946 27.4562 21.8033 27.2437 22.8529 26.8504C23.7496 26.5027 24.5639 25.9719 25.2439 25.2919C25.9239 24.6119 26.4547 23.7976 26.8024 22.9009C27.1969 21.8509 27.4084 20.7439 27.4309 19.6219C27.4954 18.1789 27.5149 17.7214 27.5149 14.0569C27.5149 10.3924 27.5149 9.92745 27.4309 8.49195C27.4135 7.35536 27.1998 6.23032 26.7994 5.16645ZM24.9724 19.4644C24.9628 20.3289 24.805 21.1853 24.5059 21.9964C24.2807 22.5798 23.9358 23.1094 23.4935 23.5515C23.0513 23.9935 22.5214 24.338 21.9379 24.5629C21.1358 24.8606 20.2885 25.0184 19.4329 25.0294C18.0079 25.0954 17.6059 25.1119 13.9519 25.1119C10.2949 25.1119 9.92143 25.1119 8.46943 25.0294C7.61432 25.019 6.76742 24.8612 5.96593 24.5629C5.38046 24.3394 4.84843 23.9955 4.40426 23.5534C3.9601 23.1113 3.61368 22.5809 3.38743 21.9964C3.0926 21.194 2.9349 20.3477 2.92093 19.4929C2.85643 18.0679 2.84143 17.6659 2.84143 14.0119C2.84143 10.3564 2.84143 9.98295 2.92093 8.52945C2.93063 7.66548 3.08841 6.80958 3.38743 5.99895C3.84493 4.81545 4.78243 3.88395 5.96593 3.43095C6.76781 3.13416 7.61447 2.97639 8.46943 2.96445C9.89593 2.89995 10.2964 2.88195 13.9519 2.88195C17.6074 2.88195 17.9824 2.88195 19.4329 2.96445C20.2885 2.97474 21.136 3.13255 21.9379 3.43095C22.5213 3.65636 23.0511 4.00125 23.4934 4.44349C23.9356 4.88573 24.2805 5.41555 24.5059 5.99895C24.8008 6.80137 24.9585 7.64769 24.9724 8.50245C25.0369 9.92895 25.0534 10.3294 25.0534 13.9849C25.0534 17.6389 25.0534 18.0319 24.9889 19.4659H24.9724V19.4644Z" fill="black"/>
</svg>
